# xmcd
#
# Track frame offsets: 
#        225
#        17744
#        29050
#        39327
#        50552
#        64533
#        81808
#        95537
#        105195
#        124668
#        136663
#        147392
#
# Disc length: 2150 seconds
#
# Revision: 0
# Processed by: cddbd v1.5PL3 Copyright (c) Steve Scherf et al.
# Submitted via: ExactAudioCopy v0.95a3
#
DISCID=9908630c
DTITLE=Listek - Den pramenu
DYEAR=2004
DGENRE=Country
TTITLE0=Den pramenu
TTITLE1=Cestou za tebou
TTITLE2=Mezi mnou a tebou
TTITLE3=Seda skala
TTITLE4=Kriz
TTITLE5=Poledni soumrak
TTITLE6=Lucerna
TTITLE7=Nerikej
TTITLE8=Oci sametovy
TTITLE9=Z Ostrovu
TTITLE10=Dharmovi tulaci
TTITLE11=Brana
EXTD=
EXTT0=
EXTT1=
EXTT2=
EXTT3=
EXTT4=
EXTT5=
EXTT6=
EXTT7=
EXTT8=
EXTT9=
EXTT10=
EXTT11=
PLAYORDER=
